<svg width="24" height="24" viewBox="0 0 24 24" fill="none" xmlns="http://www.w3.org/2000/svg">
<path d="M20.88 6.83597L12.63 2.6955C12.4371 2.59785 12.2204 2.54663 12 2.54663C11.7796 2.54663 11.5629 2.59785 11.37 2.6955L3.12 6.83597C2.91357 6.93951 2.7413 7.09202 2.62123 7.27753C2.50115 7.46304 2.4377 7.67472 2.4375 7.89043V16.1095C2.4377 16.3252 2.50115 16.5369 2.62123 16.7224C2.7413 16.9079 2.91357 17.0604 3.12 17.1639L11.37 21.3044C11.5629 21.4019 11.7797 21.453 12 21.453C12.2203 21.453 12.4371 21.4019 12.63 21.3044L20.88 17.1639C21.0864 17.0604 21.2587 16.9079 21.3788 16.7224C21.4988 16.5369 21.5623 16.3252 21.5625 16.1095V7.89043C21.5623 7.67472 21.4988 7.46304 21.3788 7.27753C21.2587 7.09202 21.0864 6.93951 20.88 6.83597ZM11.9062 3.59957C11.9338 3.58573 11.9648 3.57847 11.9963 3.57847C12.0277 3.57847 12.0587 3.58573 12.0863 3.59957L19.9228 7.53121L16.7409 9.12707L8.81719 5.1516L11.9062 3.59957ZM11.4375 20.164L3.65625 16.2599C3.6275 16.2447 3.60367 16.2227 3.5872 16.1963C3.57073 16.1699 3.5622 16.1399 3.5625 16.1095V8.4473L11.4375 12.4004V20.164ZM4.07719 7.53121L7.64625 5.73941L15.5691 9.71488L12 11.505L4.07719 7.53121ZM20.4375 16.1095C20.4378 16.1399 20.4293 16.1699 20.4128 16.1963C20.3963 16.2227 20.3725 16.2447 20.3438 16.2599L12.5625 20.164V12.3987L15.9375 10.7049V14.0625C15.9375 14.1992 15.9968 14.3304 16.1023 14.4271C16.2077 14.5238 16.3508 14.5781 16.5 14.5781C16.6492 14.5781 16.7923 14.5238 16.8977 14.4271C17.0032 14.3304 17.0625 14.1992 17.0625 14.0625V10.1411L20.4375 8.4473V16.1095Z" fill="black" fill-opacity="0.75"/>
</svg>
